M48
;DRILL file {KiCad 5.0.2+dfsg1-1} date Tue 24 Aug 2021 07:43:43 PM EDT
;FORMAT={-:-/ absolute / inch / decimal}
FMAT,2
INCH,TZ
T1C0.0157
T2C0.0394
T3C0.0472
T4C0.0866
%
G90
G05
T1
X3.5926Y-4.0624
X3.7626Y-3.94
X3.8Y-2.9
X3.8Y-4.275
X3.9426Y-3.79
T2
X4.25Y-2.7
X4.25Y-2.8
X4.25Y-2.9
X4.25Y-3.
X4.25Y-3.1
X4.25Y-3.2
X4.25Y-3.3
X4.25Y-3.4
X4.25Y-3.5
X4.25Y-3.6
X4.25Y-3.7
X4.25Y-3.8
X4.25Y-3.9
X4.25Y-4.
X4.25Y-4.1
X3.35Y-2.7
X3.35Y-2.8
X3.35Y-2.9
X3.35Y-3.
X3.35Y-3.1
X3.35Y-3.2
X3.35Y-3.3
X3.35Y-3.4
X3.35Y-3.5
X3.35Y-3.6
X3.35Y-3.7
X3.35Y-3.8
X3.35Y-3.9
X3.35Y-4.
X3.35Y-4.1
T3
X3.05Y-3.75
X3.05Y-3.55
X3.2Y-3.55
X3.2Y-3.95
X3.2Y-3.15
X3.2Y-3.35
X3.2Y-3.75
X3.05Y-3.35
X3.05Y-3.15
X3.05Y-3.95
X4.4Y-3.95
T4
X3.8Y-2.75
X3.8Y-4.55
X2.8Y-3.55
X4.8Y-3.55
T0
M30
