G04 #@! TF.GenerationSoftware,KiCad,Pcbnew,5.0.2+dfsg1-1*
G04 #@! TF.CreationDate,2021-08-24T19:42:59-04:00*
G04 #@! TF.ProjectId,WIFI_RGB_PCB,57494649-5f52-4474-925f-5043422e6b69,rev?*
G04 #@! TF.SameCoordinates,Original*
G04 #@! TF.FileFunction,Paste,Top*
G04 #@! TF.FilePolarity,Positive*
%FSLAX46Y46*%
G04 Gerber Fmt 4.6, Leading zero omitted, Abs format (unit mm)*
G04 Created by KiCad (PCBNEW 5.0.2+dfsg1-1) date Tue 24 Aug 2021 07:42:59 PM EDT*
%MOMM*%
%LPD*%
G01*
G04 APERTURE LIST*
%ADD10R,1.000000X1.500000*%
%ADD11C,0.100000*%
%ADD12C,0.975000*%
%ADD13C,1.250000*%
%ADD14R,0.650000X1.560000*%
G04 APERTURE END LIST*
D10*
G04 #@! TO.C,D4*
X111176000Y-76110000D03*
X112776000Y-76110000D03*
X114376000Y-76110000D03*
X111176000Y-71210000D03*
X112776000Y-71210000D03*
X114376000Y-71210000D03*
G04 #@! TD*
G04 #@! TO.C,D3*
X81864000Y-71210000D03*
X80264000Y-71210000D03*
X78664000Y-71210000D03*
X81864000Y-76110000D03*
X80264000Y-76110000D03*
X78664000Y-76110000D03*
G04 #@! TD*
G04 #@! TO.C,D2*
X114376000Y-104230000D03*
X112776000Y-104230000D03*
X111176000Y-104230000D03*
X114376000Y-109130000D03*
X112776000Y-109130000D03*
X111176000Y-109130000D03*
G04 #@! TD*
G04 #@! TO.C,D1*
X78664000Y-109130000D03*
X80264000Y-109130000D03*
X81864000Y-109130000D03*
X78664000Y-104230000D03*
X80264000Y-104230000D03*
X81864000Y-104230000D03*
G04 #@! TD*
D11*
G04 #@! TO.C,R7*
G36*
X88230142Y-66611174D02*
X88253803Y-66614684D01*
X88277007Y-66620496D01*
X88299529Y-66628554D01*
X88321153Y-66638782D01*
X88341670Y-66651079D01*
X88360883Y-66665329D01*
X88378607Y-66681393D01*
X88394671Y-66699117D01*
X88408921Y-66718330D01*
X88421218Y-66738847D01*
X88431446Y-66760471D01*
X88439504Y-66782993D01*
X88445316Y-66806197D01*
X88448826Y-66829858D01*
X88450000Y-66853750D01*
X88450000Y-67766250D01*
X88448826Y-67790142D01*
X88445316Y-67813803D01*
X88439504Y-67837007D01*
X88431446Y-67859529D01*
X88421218Y-67881153D01*
X88408921Y-67901670D01*
X88394671Y-67920883D01*
X88378607Y-67938607D01*
X88360883Y-67954671D01*
X88341670Y-67968921D01*
X88321153Y-67981218D01*
X88299529Y-67991446D01*
X88277007Y-67999504D01*
X88253803Y-68005316D01*
X88230142Y-68008826D01*
X88206250Y-68010000D01*
X87718750Y-68010000D01*
X87694858Y-68008826D01*
X87671197Y-68005316D01*
X87647993Y-67999504D01*
X87625471Y-67991446D01*
X87603847Y-67981218D01*
X87583330Y-67968921D01*
X87564117Y-67954671D01*
X87546393Y-67938607D01*
X87530329Y-67920883D01*
X87516079Y-67901670D01*
X87503782Y-67881153D01*
X87493554Y-67859529D01*
X87485496Y-67837007D01*
X87479684Y-67813803D01*
X87476174Y-67790142D01*
X87475000Y-67766250D01*
X87475000Y-66853750D01*
X87476174Y-66829858D01*
X87479684Y-66806197D01*
X87485496Y-66782993D01*
X87493554Y-66760471D01*
X87503782Y-66738847D01*
X87516079Y-66718330D01*
X87530329Y-66699117D01*
X87546393Y-66681393D01*
X87564117Y-66665329D01*
X87583330Y-66651079D01*
X87603847Y-66638782D01*
X87625471Y-66628554D01*
X87647993Y-66620496D01*
X87671197Y-66614684D01*
X87694858Y-66611174D01*
X87718750Y-66610000D01*
X88206250Y-66610000D01*
X88230142Y-66611174D01*
X88230142Y-66611174D01*
G37*
D12*
X87962500Y-67310000D03*
D11*
G36*
X90105142Y-66611174D02*
X90128803Y-66614684D01*
X90152007Y-66620496D01*
X90174529Y-66628554D01*
X90196153Y-66638782D01*
X90216670Y-66651079D01*
X90235883Y-66665329D01*
X90253607Y-66681393D01*
X90269671Y-66699117D01*
X90283921Y-66718330D01*
X90296218Y-66738847D01*
X90306446Y-66760471D01*
X90314504Y-66782993D01*
X90320316Y-66806197D01*
X90323826Y-66829858D01*
X90325000Y-66853750D01*
X90325000Y-67766250D01*
X90323826Y-67790142D01*
X90320316Y-67813803D01*
X90314504Y-67837007D01*
X90306446Y-67859529D01*
X90296218Y-67881153D01*
X90283921Y-67901670D01*
X90269671Y-67920883D01*
X90253607Y-67938607D01*
X90235883Y-67954671D01*
X90216670Y-67968921D01*
X90196153Y-67981218D01*
X90174529Y-67991446D01*
X90152007Y-67999504D01*
X90128803Y-68005316D01*
X90105142Y-68008826D01*
X90081250Y-68010000D01*
X89593750Y-68010000D01*
X89569858Y-68008826D01*
X89546197Y-68005316D01*
X89522993Y-67999504D01*
X89500471Y-67991446D01*
X89478847Y-67981218D01*
X89458330Y-67968921D01*
X89439117Y-67954671D01*
X89421393Y-67938607D01*
X89405329Y-67920883D01*
X89391079Y-67901670D01*
X89378782Y-67881153D01*
X89368554Y-67859529D01*
X89360496Y-67837007D01*
X89354684Y-67813803D01*
X89351174Y-67790142D01*
X89350000Y-67766250D01*
X89350000Y-66853750D01*
X89351174Y-66829858D01*
X89354684Y-66806197D01*
X89360496Y-66782993D01*
X89368554Y-66760471D01*
X89378782Y-66738847D01*
X89391079Y-66718330D01*
X89405329Y-66699117D01*
X89421393Y-66681393D01*
X89439117Y-66665329D01*
X89458330Y-66651079D01*
X89478847Y-66638782D01*
X89500471Y-66628554D01*
X89522993Y-66620496D01*
X89546197Y-66614684D01*
X89569858Y-66611174D01*
X89593750Y-66610000D01*
X90081250Y-66610000D01*
X90105142Y-66611174D01*
X90105142Y-66611174D01*
G37*
D12*
X89837500Y-67310000D03*
G04 #@! TD*
D11*
G04 #@! TO.C,R12*
G36*
X103470142Y-66611174D02*
X103493803Y-66614684D01*
X103517007Y-66620496D01*
X103539529Y-66628554D01*
X103561153Y-66638782D01*
X103581670Y-66651079D01*
X103600883Y-66665329D01*
X103618607Y-66681393D01*
X103634671Y-66699117D01*
X103648921Y-66718330D01*
X103661218Y-66738847D01*
X103671446Y-66760471D01*
X103679504Y-66782993D01*
X103685316Y-66806197D01*
X103688826Y-66829858D01*
X103690000Y-66853750D01*
X103690000Y-67766250D01*
X103688826Y-67790142D01*
X103685316Y-67813803D01*
X103679504Y-67837007D01*
X103671446Y-67859529D01*
X103661218Y-67881153D01*
X103648921Y-67901670D01*
X103634671Y-67920883D01*
X103618607Y-67938607D01*
X103600883Y-67954671D01*
X103581670Y-67968921D01*
X103561153Y-67981218D01*
X103539529Y-67991446D01*
X103517007Y-67999504D01*
X103493803Y-68005316D01*
X103470142Y-68008826D01*
X103446250Y-68010000D01*
X102958750Y-68010000D01*
X102934858Y-68008826D01*
X102911197Y-68005316D01*
X102887993Y-67999504D01*
X102865471Y-67991446D01*
X102843847Y-67981218D01*
X102823330Y-67968921D01*
X102804117Y-67954671D01*
X102786393Y-67938607D01*
X102770329Y-67920883D01*
X102756079Y-67901670D01*
X102743782Y-67881153D01*
X102733554Y-67859529D01*
X102725496Y-67837007D01*
X102719684Y-67813803D01*
X102716174Y-67790142D01*
X102715000Y-67766250D01*
X102715000Y-66853750D01*
X102716174Y-66829858D01*
X102719684Y-66806197D01*
X102725496Y-66782993D01*
X102733554Y-66760471D01*
X102743782Y-66738847D01*
X102756079Y-66718330D01*
X102770329Y-66699117D01*
X102786393Y-66681393D01*
X102804117Y-66665329D01*
X102823330Y-66651079D01*
X102843847Y-66638782D01*
X102865471Y-66628554D01*
X102887993Y-66620496D01*
X102911197Y-66614684D01*
X102934858Y-66611174D01*
X102958750Y-66610000D01*
X103446250Y-66610000D01*
X103470142Y-66611174D01*
X103470142Y-66611174D01*
G37*
D12*
X103202500Y-67310000D03*
D11*
G36*
X105345142Y-66611174D02*
X105368803Y-66614684D01*
X105392007Y-66620496D01*
X105414529Y-66628554D01*
X105436153Y-66638782D01*
X105456670Y-66651079D01*
X105475883Y-66665329D01*
X105493607Y-66681393D01*
X105509671Y-66699117D01*
X105523921Y-66718330D01*
X105536218Y-66738847D01*
X105546446Y-66760471D01*
X105554504Y-66782993D01*
X105560316Y-66806197D01*
X105563826Y-66829858D01*
X105565000Y-66853750D01*
X105565000Y-67766250D01*
X105563826Y-67790142D01*
X105560316Y-67813803D01*
X105554504Y-67837007D01*
X105546446Y-67859529D01*
X105536218Y-67881153D01*
X105523921Y-67901670D01*
X105509671Y-67920883D01*
X105493607Y-67938607D01*
X105475883Y-67954671D01*
X105456670Y-67968921D01*
X105436153Y-67981218D01*
X105414529Y-67991446D01*
X105392007Y-67999504D01*
X105368803Y-68005316D01*
X105345142Y-68008826D01*
X105321250Y-68010000D01*
X104833750Y-68010000D01*
X104809858Y-68008826D01*
X104786197Y-68005316D01*
X104762993Y-67999504D01*
X104740471Y-67991446D01*
X104718847Y-67981218D01*
X104698330Y-67968921D01*
X104679117Y-67954671D01*
X104661393Y-67938607D01*
X104645329Y-67920883D01*
X104631079Y-67901670D01*
X104618782Y-67881153D01*
X104608554Y-67859529D01*
X104600496Y-67837007D01*
X104594684Y-67813803D01*
X104591174Y-67790142D01*
X104590000Y-67766250D01*
X104590000Y-66853750D01*
X104591174Y-66829858D01*
X104594684Y-66806197D01*
X104600496Y-66782993D01*
X104608554Y-66760471D01*
X104618782Y-66738847D01*
X104631079Y-66718330D01*
X104645329Y-66699117D01*
X104661393Y-66681393D01*
X104679117Y-66665329D01*
X104698330Y-66651079D01*
X104718847Y-66638782D01*
X104740471Y-66628554D01*
X104762993Y-66620496D01*
X104786197Y-66614684D01*
X104809858Y-66611174D01*
X104833750Y-66610000D01*
X105321250Y-66610000D01*
X105345142Y-66611174D01*
X105345142Y-66611174D01*
G37*
D12*
X105077500Y-67310000D03*
G04 #@! TD*
D11*
G04 #@! TO.C,R11*
G36*
X105345142Y-70421174D02*
X105368803Y-70424684D01*
X105392007Y-70430496D01*
X105414529Y-70438554D01*
X105436153Y-70448782D01*
X105456670Y-70461079D01*
X105475883Y-70475329D01*
X105493607Y-70491393D01*
X105509671Y-70509117D01*
X105523921Y-70528330D01*
X105536218Y-70548847D01*
X105546446Y-70570471D01*
X105554504Y-70592993D01*
X105560316Y-70616197D01*
X105563826Y-70639858D01*
X105565000Y-70663750D01*
X105565000Y-71576250D01*
X105563826Y-71600142D01*
X105560316Y-71623803D01*
X105554504Y-71647007D01*
X105546446Y-71669529D01*
X105536218Y-71691153D01*
X105523921Y-71711670D01*
X105509671Y-71730883D01*
X105493607Y-71748607D01*
X105475883Y-71764671D01*
X105456670Y-71778921D01*
X105436153Y-71791218D01*
X105414529Y-71801446D01*
X105392007Y-71809504D01*
X105368803Y-71815316D01*
X105345142Y-71818826D01*
X105321250Y-71820000D01*
X104833750Y-71820000D01*
X104809858Y-71818826D01*
X104786197Y-71815316D01*
X104762993Y-71809504D01*
X104740471Y-71801446D01*
X104718847Y-71791218D01*
X104698330Y-71778921D01*
X104679117Y-71764671D01*
X104661393Y-71748607D01*
X104645329Y-71730883D01*
X104631079Y-71711670D01*
X104618782Y-71691153D01*
X104608554Y-71669529D01*
X104600496Y-71647007D01*
X104594684Y-71623803D01*
X104591174Y-71600142D01*
X104590000Y-71576250D01*
X104590000Y-70663750D01*
X104591174Y-70639858D01*
X104594684Y-70616197D01*
X104600496Y-70592993D01*
X104608554Y-70570471D01*
X104618782Y-70548847D01*
X104631079Y-70528330D01*
X104645329Y-70509117D01*
X104661393Y-70491393D01*
X104679117Y-70475329D01*
X104698330Y-70461079D01*
X104718847Y-70448782D01*
X104740471Y-70438554D01*
X104762993Y-70430496D01*
X104786197Y-70424684D01*
X104809858Y-70421174D01*
X104833750Y-70420000D01*
X105321250Y-70420000D01*
X105345142Y-70421174D01*
X105345142Y-70421174D01*
G37*
D12*
X105077500Y-71120000D03*
D11*
G36*
X103470142Y-70421174D02*
X103493803Y-70424684D01*
X103517007Y-70430496D01*
X103539529Y-70438554D01*
X103561153Y-70448782D01*
X103581670Y-70461079D01*
X103600883Y-70475329D01*
X103618607Y-70491393D01*
X103634671Y-70509117D01*
X103648921Y-70528330D01*
X103661218Y-70548847D01*
X103671446Y-70570471D01*
X103679504Y-70592993D01*
X103685316Y-70616197D01*
X103688826Y-70639858D01*
X103690000Y-70663750D01*
X103690000Y-71576250D01*
X103688826Y-71600142D01*
X103685316Y-71623803D01*
X103679504Y-71647007D01*
X103671446Y-71669529D01*
X103661218Y-71691153D01*
X103648921Y-71711670D01*
X103634671Y-71730883D01*
X103618607Y-71748607D01*
X103600883Y-71764671D01*
X103581670Y-71778921D01*
X103561153Y-71791218D01*
X103539529Y-71801446D01*
X103517007Y-71809504D01*
X103493803Y-71815316D01*
X103470142Y-71818826D01*
X103446250Y-71820000D01*
X102958750Y-71820000D01*
X102934858Y-71818826D01*
X102911197Y-71815316D01*
X102887993Y-71809504D01*
X102865471Y-71801446D01*
X102843847Y-71791218D01*
X102823330Y-71778921D01*
X102804117Y-71764671D01*
X102786393Y-71748607D01*
X102770329Y-71730883D01*
X102756079Y-71711670D01*
X102743782Y-71691153D01*
X102733554Y-71669529D01*
X102725496Y-71647007D01*
X102719684Y-71623803D01*
X102716174Y-71600142D01*
X102715000Y-71576250D01*
X102715000Y-70663750D01*
X102716174Y-70639858D01*
X102719684Y-70616197D01*
X102725496Y-70592993D01*
X102733554Y-70570471D01*
X102743782Y-70548847D01*
X102756079Y-70528330D01*
X102770329Y-70509117D01*
X102786393Y-70491393D01*
X102804117Y-70475329D01*
X102823330Y-70461079D01*
X102843847Y-70448782D01*
X102865471Y-70438554D01*
X102887993Y-70430496D01*
X102911197Y-70424684D01*
X102934858Y-70421174D01*
X102958750Y-70420000D01*
X103446250Y-70420000D01*
X103470142Y-70421174D01*
X103470142Y-70421174D01*
G37*
D12*
X103202500Y-71120000D03*
G04 #@! TD*
D11*
G04 #@! TO.C,R10*
G36*
X103470142Y-68516174D02*
X103493803Y-68519684D01*
X103517007Y-68525496D01*
X103539529Y-68533554D01*
X103561153Y-68543782D01*
X103581670Y-68556079D01*
X103600883Y-68570329D01*
X103618607Y-68586393D01*
X103634671Y-68604117D01*
X103648921Y-68623330D01*
X103661218Y-68643847D01*
X103671446Y-68665471D01*
X103679504Y-68687993D01*
X103685316Y-68711197D01*
X103688826Y-68734858D01*
X103690000Y-68758750D01*
X103690000Y-69671250D01*
X103688826Y-69695142D01*
X103685316Y-69718803D01*
X103679504Y-69742007D01*
X103671446Y-69764529D01*
X103661218Y-69786153D01*
X103648921Y-69806670D01*
X103634671Y-69825883D01*
X103618607Y-69843607D01*
X103600883Y-69859671D01*
X103581670Y-69873921D01*
X103561153Y-69886218D01*
X103539529Y-69896446D01*
X103517007Y-69904504D01*
X103493803Y-69910316D01*
X103470142Y-69913826D01*
X103446250Y-69915000D01*
X102958750Y-69915000D01*
X102934858Y-69913826D01*
X102911197Y-69910316D01*
X102887993Y-69904504D01*
X102865471Y-69896446D01*
X102843847Y-69886218D01*
X102823330Y-69873921D01*
X102804117Y-69859671D01*
X102786393Y-69843607D01*
X102770329Y-69825883D01*
X102756079Y-69806670D01*
X102743782Y-69786153D01*
X102733554Y-69764529D01*
X102725496Y-69742007D01*
X102719684Y-69718803D01*
X102716174Y-69695142D01*
X102715000Y-69671250D01*
X102715000Y-68758750D01*
X102716174Y-68734858D01*
X102719684Y-68711197D01*
X102725496Y-68687993D01*
X102733554Y-68665471D01*
X102743782Y-68643847D01*
X102756079Y-68623330D01*
X102770329Y-68604117D01*
X102786393Y-68586393D01*
X102804117Y-68570329D01*
X102823330Y-68556079D01*
X102843847Y-68543782D01*
X102865471Y-68533554D01*
X102887993Y-68525496D01*
X102911197Y-68519684D01*
X102934858Y-68516174D01*
X102958750Y-68515000D01*
X103446250Y-68515000D01*
X103470142Y-68516174D01*
X103470142Y-68516174D01*
G37*
D12*
X103202500Y-69215000D03*
D11*
G36*
X105345142Y-68516174D02*
X105368803Y-68519684D01*
X105392007Y-68525496D01*
X105414529Y-68533554D01*
X105436153Y-68543782D01*
X105456670Y-68556079D01*
X105475883Y-68570329D01*
X105493607Y-68586393D01*
X105509671Y-68604117D01*
X105523921Y-68623330D01*
X105536218Y-68643847D01*
X105546446Y-68665471D01*
X105554504Y-68687993D01*
X105560316Y-68711197D01*
X105563826Y-68734858D01*
X105565000Y-68758750D01*
X105565000Y-69671250D01*
X105563826Y-69695142D01*
X105560316Y-69718803D01*
X105554504Y-69742007D01*
X105546446Y-69764529D01*
X105536218Y-69786153D01*
X105523921Y-69806670D01*
X105509671Y-69825883D01*
X105493607Y-69843607D01*
X105475883Y-69859671D01*
X105456670Y-69873921D01*
X105436153Y-69886218D01*
X105414529Y-69896446D01*
X105392007Y-69904504D01*
X105368803Y-69910316D01*
X105345142Y-69913826D01*
X105321250Y-69915000D01*
X104833750Y-69915000D01*
X104809858Y-69913826D01*
X104786197Y-69910316D01*
X104762993Y-69904504D01*
X104740471Y-69896446D01*
X104718847Y-69886218D01*
X104698330Y-69873921D01*
X104679117Y-69859671D01*
X104661393Y-69843607D01*
X104645329Y-69825883D01*
X104631079Y-69806670D01*
X104618782Y-69786153D01*
X104608554Y-69764529D01*
X104600496Y-69742007D01*
X104594684Y-69718803D01*
X104591174Y-69695142D01*
X104590000Y-69671250D01*
X104590000Y-68758750D01*
X104591174Y-68734858D01*
X104594684Y-68711197D01*
X104600496Y-68687993D01*
X104608554Y-68665471D01*
X104618782Y-68643847D01*
X104631079Y-68623330D01*
X104645329Y-68604117D01*
X104661393Y-68586393D01*
X104679117Y-68570329D01*
X104698330Y-68556079D01*
X104718847Y-68543782D01*
X104740471Y-68533554D01*
X104762993Y-68525496D01*
X104786197Y-68519684D01*
X104809858Y-68516174D01*
X104833750Y-68515000D01*
X105321250Y-68515000D01*
X105345142Y-68516174D01*
X105345142Y-68516174D01*
G37*
D12*
X105077500Y-69215000D03*
G04 #@! TD*
D11*
G04 #@! TO.C,R9*
G36*
X88230142Y-70421174D02*
X88253803Y-70424684D01*
X88277007Y-70430496D01*
X88299529Y-70438554D01*
X88321153Y-70448782D01*
X88341670Y-70461079D01*
X88360883Y-70475329D01*
X88378607Y-70491393D01*
X88394671Y-70509117D01*
X88408921Y-70528330D01*
X88421218Y-70548847D01*
X88431446Y-70570471D01*
X88439504Y-70592993D01*
X88445316Y-70616197D01*
X88448826Y-70639858D01*
X88450000Y-70663750D01*
X88450000Y-71576250D01*
X88448826Y-71600142D01*
X88445316Y-71623803D01*
X88439504Y-71647007D01*
X88431446Y-71669529D01*
X88421218Y-71691153D01*
X88408921Y-71711670D01*
X88394671Y-71730883D01*
X88378607Y-71748607D01*
X88360883Y-71764671D01*
X88341670Y-71778921D01*
X88321153Y-71791218D01*
X88299529Y-71801446D01*
X88277007Y-71809504D01*
X88253803Y-71815316D01*
X88230142Y-71818826D01*
X88206250Y-71820000D01*
X87718750Y-71820000D01*
X87694858Y-71818826D01*
X87671197Y-71815316D01*
X87647993Y-71809504D01*
X87625471Y-71801446D01*
X87603847Y-71791218D01*
X87583330Y-71778921D01*
X87564117Y-71764671D01*
X87546393Y-71748607D01*
X87530329Y-71730883D01*
X87516079Y-71711670D01*
X87503782Y-71691153D01*
X87493554Y-71669529D01*
X87485496Y-71647007D01*
X87479684Y-71623803D01*
X87476174Y-71600142D01*
X87475000Y-71576250D01*
X87475000Y-70663750D01*
X87476174Y-70639858D01*
X87479684Y-70616197D01*
X87485496Y-70592993D01*
X87493554Y-70570471D01*
X87503782Y-70548847D01*
X87516079Y-70528330D01*
X87530329Y-70509117D01*
X87546393Y-70491393D01*
X87564117Y-70475329D01*
X87583330Y-70461079D01*
X87603847Y-70448782D01*
X87625471Y-70438554D01*
X87647993Y-70430496D01*
X87671197Y-70424684D01*
X87694858Y-70421174D01*
X87718750Y-70420000D01*
X88206250Y-70420000D01*
X88230142Y-70421174D01*
X88230142Y-70421174D01*
G37*
D12*
X87962500Y-71120000D03*
D11*
G36*
X90105142Y-70421174D02*
X90128803Y-70424684D01*
X90152007Y-70430496D01*
X90174529Y-70438554D01*
X90196153Y-70448782D01*
X90216670Y-70461079D01*
X90235883Y-70475329D01*
X90253607Y-70491393D01*
X90269671Y-70509117D01*
X90283921Y-70528330D01*
X90296218Y-70548847D01*
X90306446Y-70570471D01*
X90314504Y-70592993D01*
X90320316Y-70616197D01*
X90323826Y-70639858D01*
X90325000Y-70663750D01*
X90325000Y-71576250D01*
X90323826Y-71600142D01*
X90320316Y-71623803D01*
X90314504Y-71647007D01*
X90306446Y-71669529D01*
X90296218Y-71691153D01*
X90283921Y-71711670D01*
X90269671Y-71730883D01*
X90253607Y-71748607D01*
X90235883Y-71764671D01*
X90216670Y-71778921D01*
X90196153Y-71791218D01*
X90174529Y-71801446D01*
X90152007Y-71809504D01*
X90128803Y-71815316D01*
X90105142Y-71818826D01*
X90081250Y-71820000D01*
X89593750Y-71820000D01*
X89569858Y-71818826D01*
X89546197Y-71815316D01*
X89522993Y-71809504D01*
X89500471Y-71801446D01*
X89478847Y-71791218D01*
X89458330Y-71778921D01*
X89439117Y-71764671D01*
X89421393Y-71748607D01*
X89405329Y-71730883D01*
X89391079Y-71711670D01*
X89378782Y-71691153D01*
X89368554Y-71669529D01*
X89360496Y-71647007D01*
X89354684Y-71623803D01*
X89351174Y-71600142D01*
X89350000Y-71576250D01*
X89350000Y-70663750D01*
X89351174Y-70639858D01*
X89354684Y-70616197D01*
X89360496Y-70592993D01*
X89368554Y-70570471D01*
X89378782Y-70548847D01*
X89391079Y-70528330D01*
X89405329Y-70509117D01*
X89421393Y-70491393D01*
X89439117Y-70475329D01*
X89458330Y-70461079D01*
X89478847Y-70448782D01*
X89500471Y-70438554D01*
X89522993Y-70430496D01*
X89546197Y-70424684D01*
X89569858Y-70421174D01*
X89593750Y-70420000D01*
X90081250Y-70420000D01*
X90105142Y-70421174D01*
X90105142Y-70421174D01*
G37*
D12*
X89837500Y-71120000D03*
G04 #@! TD*
D11*
G04 #@! TO.C,R6*
G36*
X106010142Y-107886174D02*
X106033803Y-107889684D01*
X106057007Y-107895496D01*
X106079529Y-107903554D01*
X106101153Y-107913782D01*
X106121670Y-107926079D01*
X106140883Y-107940329D01*
X106158607Y-107956393D01*
X106174671Y-107974117D01*
X106188921Y-107993330D01*
X106201218Y-108013847D01*
X106211446Y-108035471D01*
X106219504Y-108057993D01*
X106225316Y-108081197D01*
X106228826Y-108104858D01*
X106230000Y-108128750D01*
X106230000Y-109041250D01*
X106228826Y-109065142D01*
X106225316Y-109088803D01*
X106219504Y-109112007D01*
X106211446Y-109134529D01*
X106201218Y-109156153D01*
X106188921Y-109176670D01*
X106174671Y-109195883D01*
X106158607Y-109213607D01*
X106140883Y-109229671D01*
X106121670Y-109243921D01*
X106101153Y-109256218D01*
X106079529Y-109266446D01*
X106057007Y-109274504D01*
X106033803Y-109280316D01*
X106010142Y-109283826D01*
X105986250Y-109285000D01*
X105498750Y-109285000D01*
X105474858Y-109283826D01*
X105451197Y-109280316D01*
X105427993Y-109274504D01*
X105405471Y-109266446D01*
X105383847Y-109256218D01*
X105363330Y-109243921D01*
X105344117Y-109229671D01*
X105326393Y-109213607D01*
X105310329Y-109195883D01*
X105296079Y-109176670D01*
X105283782Y-109156153D01*
X105273554Y-109134529D01*
X105265496Y-109112007D01*
X105259684Y-109088803D01*
X105256174Y-109065142D01*
X105255000Y-109041250D01*
X105255000Y-108128750D01*
X105256174Y-108104858D01*
X105259684Y-108081197D01*
X105265496Y-108057993D01*
X105273554Y-108035471D01*
X105283782Y-108013847D01*
X105296079Y-107993330D01*
X105310329Y-107974117D01*
X105326393Y-107956393D01*
X105344117Y-107940329D01*
X105363330Y-107926079D01*
X105383847Y-107913782D01*
X105405471Y-107903554D01*
X105427993Y-107895496D01*
X105451197Y-107889684D01*
X105474858Y-107886174D01*
X105498750Y-107885000D01*
X105986250Y-107885000D01*
X106010142Y-107886174D01*
X106010142Y-107886174D01*
G37*
D12*
X105742500Y-108585000D03*
D11*
G36*
X107885142Y-107886174D02*
X107908803Y-107889684D01*
X107932007Y-107895496D01*
X107954529Y-107903554D01*
X107976153Y-107913782D01*
X107996670Y-107926079D01*
X108015883Y-107940329D01*
X108033607Y-107956393D01*
X108049671Y-107974117D01*
X108063921Y-107993330D01*
X108076218Y-108013847D01*
X108086446Y-108035471D01*
X108094504Y-108057993D01*
X108100316Y-108081197D01*
X108103826Y-108104858D01*
X108105000Y-108128750D01*
X108105000Y-109041250D01*
X108103826Y-109065142D01*
X108100316Y-109088803D01*
X108094504Y-109112007D01*
X108086446Y-109134529D01*
X108076218Y-109156153D01*
X108063921Y-109176670D01*
X108049671Y-109195883D01*
X108033607Y-109213607D01*
X108015883Y-109229671D01*
X107996670Y-109243921D01*
X107976153Y-109256218D01*
X107954529Y-109266446D01*
X107932007Y-109274504D01*
X107908803Y-109280316D01*
X107885142Y-109283826D01*
X107861250Y-109285000D01*
X107373750Y-109285000D01*
X107349858Y-109283826D01*
X107326197Y-109280316D01*
X107302993Y-109274504D01*
X107280471Y-109266446D01*
X107258847Y-109256218D01*
X107238330Y-109243921D01*
X107219117Y-109229671D01*
X107201393Y-109213607D01*
X107185329Y-109195883D01*
X107171079Y-109176670D01*
X107158782Y-109156153D01*
X107148554Y-109134529D01*
X107140496Y-109112007D01*
X107134684Y-109088803D01*
X107131174Y-109065142D01*
X107130000Y-109041250D01*
X107130000Y-108128750D01*
X107131174Y-108104858D01*
X107134684Y-108081197D01*
X107140496Y-108057993D01*
X107148554Y-108035471D01*
X107158782Y-108013847D01*
X107171079Y-107993330D01*
X107185329Y-107974117D01*
X107201393Y-107956393D01*
X107219117Y-107940329D01*
X107238330Y-107926079D01*
X107258847Y-107913782D01*
X107280471Y-107903554D01*
X107302993Y-107895496D01*
X107326197Y-107889684D01*
X107349858Y-107886174D01*
X107373750Y-107885000D01*
X107861250Y-107885000D01*
X107885142Y-107886174D01*
X107885142Y-107886174D01*
G37*
D12*
X107617500Y-108585000D03*
G04 #@! TD*
D11*
G04 #@! TO.C,R5*
G36*
X107885142Y-110426174D02*
X107908803Y-110429684D01*
X107932007Y-110435496D01*
X107954529Y-110443554D01*
X107976153Y-110453782D01*
X107996670Y-110466079D01*
X108015883Y-110480329D01*
X108033607Y-110496393D01*
X108049671Y-110514117D01*
X108063921Y-110533330D01*
X108076218Y-110553847D01*
X108086446Y-110575471D01*
X108094504Y-110597993D01*
X108100316Y-110621197D01*
X108103826Y-110644858D01*
X108105000Y-110668750D01*
X108105000Y-111581250D01*
X108103826Y-111605142D01*
X108100316Y-111628803D01*
X108094504Y-111652007D01*
X108086446Y-111674529D01*
X108076218Y-111696153D01*
X108063921Y-111716670D01*
X108049671Y-111735883D01*
X108033607Y-111753607D01*
X108015883Y-111769671D01*
X107996670Y-111783921D01*
X107976153Y-111796218D01*
X107954529Y-111806446D01*
X107932007Y-111814504D01*
X107908803Y-111820316D01*
X107885142Y-111823826D01*
X107861250Y-111825000D01*
X107373750Y-111825000D01*
X107349858Y-111823826D01*
X107326197Y-111820316D01*
X107302993Y-111814504D01*
X107280471Y-111806446D01*
X107258847Y-111796218D01*
X107238330Y-111783921D01*
X107219117Y-111769671D01*
X107201393Y-111753607D01*
X107185329Y-111735883D01*
X107171079Y-111716670D01*
X107158782Y-111696153D01*
X107148554Y-111674529D01*
X107140496Y-111652007D01*
X107134684Y-111628803D01*
X107131174Y-111605142D01*
X107130000Y-111581250D01*
X107130000Y-110668750D01*
X107131174Y-110644858D01*
X107134684Y-110621197D01*
X107140496Y-110597993D01*
X107148554Y-110575471D01*
X107158782Y-110553847D01*
X107171079Y-110533330D01*
X107185329Y-110514117D01*
X107201393Y-110496393D01*
X107219117Y-110480329D01*
X107238330Y-110466079D01*
X107258847Y-110453782D01*
X107280471Y-110443554D01*
X107302993Y-110435496D01*
X107326197Y-110429684D01*
X107349858Y-110426174D01*
X107373750Y-110425000D01*
X107861250Y-110425000D01*
X107885142Y-110426174D01*
X107885142Y-110426174D01*
G37*
D12*
X107617500Y-111125000D03*
D11*
G36*
X106010142Y-110426174D02*
X106033803Y-110429684D01*
X106057007Y-110435496D01*
X106079529Y-110443554D01*
X106101153Y-110453782D01*
X106121670Y-110466079D01*
X106140883Y-110480329D01*
X106158607Y-110496393D01*
X106174671Y-110514117D01*
X106188921Y-110533330D01*
X106201218Y-110553847D01*
X106211446Y-110575471D01*
X106219504Y-110597993D01*
X106225316Y-110621197D01*
X106228826Y-110644858D01*
X106230000Y-110668750D01*
X106230000Y-111581250D01*
X106228826Y-111605142D01*
X106225316Y-111628803D01*
X106219504Y-111652007D01*
X106211446Y-111674529D01*
X106201218Y-111696153D01*
X106188921Y-111716670D01*
X106174671Y-111735883D01*
X106158607Y-111753607D01*
X106140883Y-111769671D01*
X106121670Y-111783921D01*
X106101153Y-111796218D01*
X106079529Y-111806446D01*
X106057007Y-111814504D01*
X106033803Y-111820316D01*
X106010142Y-111823826D01*
X105986250Y-111825000D01*
X105498750Y-111825000D01*
X105474858Y-111823826D01*
X105451197Y-111820316D01*
X105427993Y-111814504D01*
X105405471Y-111806446D01*
X105383847Y-111796218D01*
X105363330Y-111783921D01*
X105344117Y-111769671D01*
X105326393Y-111753607D01*
X105310329Y-111735883D01*
X105296079Y-111716670D01*
X105283782Y-111696153D01*
X105273554Y-111674529D01*
X105265496Y-111652007D01*
X105259684Y-111628803D01*
X105256174Y-111605142D01*
X105255000Y-111581250D01*
X105255000Y-110668750D01*
X105256174Y-110644858D01*
X105259684Y-110621197D01*
X105265496Y-110597993D01*
X105273554Y-110575471D01*
X105283782Y-110553847D01*
X105296079Y-110533330D01*
X105310329Y-110514117D01*
X105326393Y-110496393D01*
X105344117Y-110480329D01*
X105363330Y-110466079D01*
X105383847Y-110453782D01*
X105405471Y-110443554D01*
X105427993Y-110435496D01*
X105451197Y-110429684D01*
X105474858Y-110426174D01*
X105498750Y-110425000D01*
X105986250Y-110425000D01*
X106010142Y-110426174D01*
X106010142Y-110426174D01*
G37*
D12*
X105742500Y-111125000D03*
G04 #@! TD*
D11*
G04 #@! TO.C,R4*
G36*
X106010142Y-112966174D02*
X106033803Y-112969684D01*
X106057007Y-112975496D01*
X106079529Y-112983554D01*
X106101153Y-112993782D01*
X106121670Y-113006079D01*
X106140883Y-113020329D01*
X106158607Y-113036393D01*
X106174671Y-113054117D01*
X106188921Y-113073330D01*
X106201218Y-113093847D01*
X106211446Y-113115471D01*
X106219504Y-113137993D01*
X106225316Y-113161197D01*
X106228826Y-113184858D01*
X106230000Y-113208750D01*
X106230000Y-114121250D01*
X106228826Y-114145142D01*
X106225316Y-114168803D01*
X106219504Y-114192007D01*
X106211446Y-114214529D01*
X106201218Y-114236153D01*
X106188921Y-114256670D01*
X106174671Y-114275883D01*
X106158607Y-114293607D01*
X106140883Y-114309671D01*
X106121670Y-114323921D01*
X106101153Y-114336218D01*
X106079529Y-114346446D01*
X106057007Y-114354504D01*
X106033803Y-114360316D01*
X106010142Y-114363826D01*
X105986250Y-114365000D01*
X105498750Y-114365000D01*
X105474858Y-114363826D01*
X105451197Y-114360316D01*
X105427993Y-114354504D01*
X105405471Y-114346446D01*
X105383847Y-114336218D01*
X105363330Y-114323921D01*
X105344117Y-114309671D01*
X105326393Y-114293607D01*
X105310329Y-114275883D01*
X105296079Y-114256670D01*
X105283782Y-114236153D01*
X105273554Y-114214529D01*
X105265496Y-114192007D01*
X105259684Y-114168803D01*
X105256174Y-114145142D01*
X105255000Y-114121250D01*
X105255000Y-113208750D01*
X105256174Y-113184858D01*
X105259684Y-113161197D01*
X105265496Y-113137993D01*
X105273554Y-113115471D01*
X105283782Y-113093847D01*
X105296079Y-113073330D01*
X105310329Y-113054117D01*
X105326393Y-113036393D01*
X105344117Y-113020329D01*
X105363330Y-113006079D01*
X105383847Y-112993782D01*
X105405471Y-112983554D01*
X105427993Y-112975496D01*
X105451197Y-112969684D01*
X105474858Y-112966174D01*
X105498750Y-112965000D01*
X105986250Y-112965000D01*
X106010142Y-112966174D01*
X106010142Y-112966174D01*
G37*
D12*
X105742500Y-113665000D03*
D11*
G36*
X107885142Y-112966174D02*
X107908803Y-112969684D01*
X107932007Y-112975496D01*
X107954529Y-112983554D01*
X107976153Y-112993782D01*
X107996670Y-113006079D01*
X108015883Y-113020329D01*
X108033607Y-113036393D01*
X108049671Y-113054117D01*
X108063921Y-113073330D01*
X108076218Y-113093847D01*
X108086446Y-113115471D01*
X108094504Y-113137993D01*
X108100316Y-113161197D01*
X108103826Y-113184858D01*
X108105000Y-113208750D01*
X108105000Y-114121250D01*
X108103826Y-114145142D01*
X108100316Y-114168803D01*
X108094504Y-114192007D01*
X108086446Y-114214529D01*
X108076218Y-114236153D01*
X108063921Y-114256670D01*
X108049671Y-114275883D01*
X108033607Y-114293607D01*
X108015883Y-114309671D01*
X107996670Y-114323921D01*
X107976153Y-114336218D01*
X107954529Y-114346446D01*
X107932007Y-114354504D01*
X107908803Y-114360316D01*
X107885142Y-114363826D01*
X107861250Y-114365000D01*
X107373750Y-114365000D01*
X107349858Y-114363826D01*
X107326197Y-114360316D01*
X107302993Y-114354504D01*
X107280471Y-114346446D01*
X107258847Y-114336218D01*
X107238330Y-114323921D01*
X107219117Y-114309671D01*
X107201393Y-114293607D01*
X107185329Y-114275883D01*
X107171079Y-114256670D01*
X107158782Y-114236153D01*
X107148554Y-114214529D01*
X107140496Y-114192007D01*
X107134684Y-114168803D01*
X107131174Y-114145142D01*
X107130000Y-114121250D01*
X107130000Y-113208750D01*
X107131174Y-113184858D01*
X107134684Y-113161197D01*
X107140496Y-113137993D01*
X107148554Y-113115471D01*
X107158782Y-113093847D01*
X107171079Y-113073330D01*
X107185329Y-113054117D01*
X107201393Y-113036393D01*
X107219117Y-113020329D01*
X107238330Y-113006079D01*
X107258847Y-112993782D01*
X107280471Y-112983554D01*
X107302993Y-112975496D01*
X107326197Y-112969684D01*
X107349858Y-112966174D01*
X107373750Y-112965000D01*
X107861250Y-112965000D01*
X107885142Y-112966174D01*
X107885142Y-112966174D01*
G37*
D12*
X107617500Y-113665000D03*
G04 #@! TD*
D11*
G04 #@! TO.C,R3*
G36*
X85690142Y-112966174D02*
X85713803Y-112969684D01*
X85737007Y-112975496D01*
X85759529Y-112983554D01*
X85781153Y-112993782D01*
X85801670Y-113006079D01*
X85820883Y-113020329D01*
X85838607Y-113036393D01*
X85854671Y-113054117D01*
X85868921Y-113073330D01*
X85881218Y-113093847D01*
X85891446Y-113115471D01*
X85899504Y-113137993D01*
X85905316Y-113161197D01*
X85908826Y-113184858D01*
X85910000Y-113208750D01*
X85910000Y-114121250D01*
X85908826Y-114145142D01*
X85905316Y-114168803D01*
X85899504Y-114192007D01*
X85891446Y-114214529D01*
X85881218Y-114236153D01*
X85868921Y-114256670D01*
X85854671Y-114275883D01*
X85838607Y-114293607D01*
X85820883Y-114309671D01*
X85801670Y-114323921D01*
X85781153Y-114336218D01*
X85759529Y-114346446D01*
X85737007Y-114354504D01*
X85713803Y-114360316D01*
X85690142Y-114363826D01*
X85666250Y-114365000D01*
X85178750Y-114365000D01*
X85154858Y-114363826D01*
X85131197Y-114360316D01*
X85107993Y-114354504D01*
X85085471Y-114346446D01*
X85063847Y-114336218D01*
X85043330Y-114323921D01*
X85024117Y-114309671D01*
X85006393Y-114293607D01*
X84990329Y-114275883D01*
X84976079Y-114256670D01*
X84963782Y-114236153D01*
X84953554Y-114214529D01*
X84945496Y-114192007D01*
X84939684Y-114168803D01*
X84936174Y-114145142D01*
X84935000Y-114121250D01*
X84935000Y-113208750D01*
X84936174Y-113184858D01*
X84939684Y-113161197D01*
X84945496Y-113137993D01*
X84953554Y-113115471D01*
X84963782Y-113093847D01*
X84976079Y-113073330D01*
X84990329Y-113054117D01*
X85006393Y-113036393D01*
X85024117Y-113020329D01*
X85043330Y-113006079D01*
X85063847Y-112993782D01*
X85085471Y-112983554D01*
X85107993Y-112975496D01*
X85131197Y-112969684D01*
X85154858Y-112966174D01*
X85178750Y-112965000D01*
X85666250Y-112965000D01*
X85690142Y-112966174D01*
X85690142Y-112966174D01*
G37*
D12*
X85422500Y-113665000D03*
D11*
G36*
X87565142Y-112966174D02*
X87588803Y-112969684D01*
X87612007Y-112975496D01*
X87634529Y-112983554D01*
X87656153Y-112993782D01*
X87676670Y-113006079D01*
X87695883Y-113020329D01*
X87713607Y-113036393D01*
X87729671Y-113054117D01*
X87743921Y-113073330D01*
X87756218Y-113093847D01*
X87766446Y-113115471D01*
X87774504Y-113137993D01*
X87780316Y-113161197D01*
X87783826Y-113184858D01*
X87785000Y-113208750D01*
X87785000Y-114121250D01*
X87783826Y-114145142D01*
X87780316Y-114168803D01*
X87774504Y-114192007D01*
X87766446Y-114214529D01*
X87756218Y-114236153D01*
X87743921Y-114256670D01*
X87729671Y-114275883D01*
X87713607Y-114293607D01*
X87695883Y-114309671D01*
X87676670Y-114323921D01*
X87656153Y-114336218D01*
X87634529Y-114346446D01*
X87612007Y-114354504D01*
X87588803Y-114360316D01*
X87565142Y-114363826D01*
X87541250Y-114365000D01*
X87053750Y-114365000D01*
X87029858Y-114363826D01*
X87006197Y-114360316D01*
X86982993Y-114354504D01*
X86960471Y-114346446D01*
X86938847Y-114336218D01*
X86918330Y-114323921D01*
X86899117Y-114309671D01*
X86881393Y-114293607D01*
X86865329Y-114275883D01*
X86851079Y-114256670D01*
X86838782Y-114236153D01*
X86828554Y-114214529D01*
X86820496Y-114192007D01*
X86814684Y-114168803D01*
X86811174Y-114145142D01*
X86810000Y-114121250D01*
X86810000Y-113208750D01*
X86811174Y-113184858D01*
X86814684Y-113161197D01*
X86820496Y-113137993D01*
X86828554Y-113115471D01*
X86838782Y-113093847D01*
X86851079Y-113073330D01*
X86865329Y-113054117D01*
X86881393Y-113036393D01*
X86899117Y-113020329D01*
X86918330Y-113006079D01*
X86938847Y-112993782D01*
X86960471Y-112983554D01*
X86982993Y-112975496D01*
X87006197Y-112969684D01*
X87029858Y-112966174D01*
X87053750Y-112965000D01*
X87541250Y-112965000D01*
X87565142Y-112966174D01*
X87565142Y-112966174D01*
G37*
D12*
X87297500Y-113665000D03*
G04 #@! TD*
D11*
G04 #@! TO.C,R2*
G36*
X87565142Y-110426174D02*
X87588803Y-110429684D01*
X87612007Y-110435496D01*
X87634529Y-110443554D01*
X87656153Y-110453782D01*
X87676670Y-110466079D01*
X87695883Y-110480329D01*
X87713607Y-110496393D01*
X87729671Y-110514117D01*
X87743921Y-110533330D01*
X87756218Y-110553847D01*
X87766446Y-110575471D01*
X87774504Y-110597993D01*
X87780316Y-110621197D01*
X87783826Y-110644858D01*
X87785000Y-110668750D01*
X87785000Y-111581250D01*
X87783826Y-111605142D01*
X87780316Y-111628803D01*
X87774504Y-111652007D01*
X87766446Y-111674529D01*
X87756218Y-111696153D01*
X87743921Y-111716670D01*
X87729671Y-111735883D01*
X87713607Y-111753607D01*
X87695883Y-111769671D01*
X87676670Y-111783921D01*
X87656153Y-111796218D01*
X87634529Y-111806446D01*
X87612007Y-111814504D01*
X87588803Y-111820316D01*
X87565142Y-111823826D01*
X87541250Y-111825000D01*
X87053750Y-111825000D01*
X87029858Y-111823826D01*
X87006197Y-111820316D01*
X86982993Y-111814504D01*
X86960471Y-111806446D01*
X86938847Y-111796218D01*
X86918330Y-111783921D01*
X86899117Y-111769671D01*
X86881393Y-111753607D01*
X86865329Y-111735883D01*
X86851079Y-111716670D01*
X86838782Y-111696153D01*
X86828554Y-111674529D01*
X86820496Y-111652007D01*
X86814684Y-111628803D01*
X86811174Y-111605142D01*
X86810000Y-111581250D01*
X86810000Y-110668750D01*
X86811174Y-110644858D01*
X86814684Y-110621197D01*
X86820496Y-110597993D01*
X86828554Y-110575471D01*
X86838782Y-110553847D01*
X86851079Y-110533330D01*
X86865329Y-110514117D01*
X86881393Y-110496393D01*
X86899117Y-110480329D01*
X86918330Y-110466079D01*
X86938847Y-110453782D01*
X86960471Y-110443554D01*
X86982993Y-110435496D01*
X87006197Y-110429684D01*
X87029858Y-110426174D01*
X87053750Y-110425000D01*
X87541250Y-110425000D01*
X87565142Y-110426174D01*
X87565142Y-110426174D01*
G37*
D12*
X87297500Y-111125000D03*
D11*
G36*
X85690142Y-110426174D02*
X85713803Y-110429684D01*
X85737007Y-110435496D01*
X85759529Y-110443554D01*
X85781153Y-110453782D01*
X85801670Y-110466079D01*
X85820883Y-110480329D01*
X85838607Y-110496393D01*
X85854671Y-110514117D01*
X85868921Y-110533330D01*
X85881218Y-110553847D01*
X85891446Y-110575471D01*
X85899504Y-110597993D01*
X85905316Y-110621197D01*
X85908826Y-110644858D01*
X85910000Y-110668750D01*
X85910000Y-111581250D01*
X85908826Y-111605142D01*
X85905316Y-111628803D01*
X85899504Y-111652007D01*
X85891446Y-111674529D01*
X85881218Y-111696153D01*
X85868921Y-111716670D01*
X85854671Y-111735883D01*
X85838607Y-111753607D01*
X85820883Y-111769671D01*
X85801670Y-111783921D01*
X85781153Y-111796218D01*
X85759529Y-111806446D01*
X85737007Y-111814504D01*
X85713803Y-111820316D01*
X85690142Y-111823826D01*
X85666250Y-111825000D01*
X85178750Y-111825000D01*
X85154858Y-111823826D01*
X85131197Y-111820316D01*
X85107993Y-111814504D01*
X85085471Y-111806446D01*
X85063847Y-111796218D01*
X85043330Y-111783921D01*
X85024117Y-111769671D01*
X85006393Y-111753607D01*
X84990329Y-111735883D01*
X84976079Y-111716670D01*
X84963782Y-111696153D01*
X84953554Y-111674529D01*
X84945496Y-111652007D01*
X84939684Y-111628803D01*
X84936174Y-111605142D01*
X84935000Y-111581250D01*
X84935000Y-110668750D01*
X84936174Y-110644858D01*
X84939684Y-110621197D01*
X84945496Y-110597993D01*
X84953554Y-110575471D01*
X84963782Y-110553847D01*
X84976079Y-110533330D01*
X84990329Y-110514117D01*
X85006393Y-110496393D01*
X85024117Y-110480329D01*
X85043330Y-110466079D01*
X85063847Y-110453782D01*
X85085471Y-110443554D01*
X85107993Y-110435496D01*
X85131197Y-110429684D01*
X85154858Y-110426174D01*
X85178750Y-110425000D01*
X85666250Y-110425000D01*
X85690142Y-110426174D01*
X85690142Y-110426174D01*
G37*
D12*
X85422500Y-111125000D03*
G04 #@! TD*
D11*
G04 #@! TO.C,R1*
G36*
X85690142Y-107886174D02*
X85713803Y-107889684D01*
X85737007Y-107895496D01*
X85759529Y-107903554D01*
X85781153Y-107913782D01*
X85801670Y-107926079D01*
X85820883Y-107940329D01*
X85838607Y-107956393D01*
X85854671Y-107974117D01*
X85868921Y-107993330D01*
X85881218Y-108013847D01*
X85891446Y-108035471D01*
X85899504Y-108057993D01*
X85905316Y-108081197D01*
X85908826Y-108104858D01*
X85910000Y-108128750D01*
X85910000Y-109041250D01*
X85908826Y-109065142D01*
X85905316Y-109088803D01*
X85899504Y-109112007D01*
X85891446Y-109134529D01*
X85881218Y-109156153D01*
X85868921Y-109176670D01*
X85854671Y-109195883D01*
X85838607Y-109213607D01*
X85820883Y-109229671D01*
X85801670Y-109243921D01*
X85781153Y-109256218D01*
X85759529Y-109266446D01*
X85737007Y-109274504D01*
X85713803Y-109280316D01*
X85690142Y-109283826D01*
X85666250Y-109285000D01*
X85178750Y-109285000D01*
X85154858Y-109283826D01*
X85131197Y-109280316D01*
X85107993Y-109274504D01*
X85085471Y-109266446D01*
X85063847Y-109256218D01*
X85043330Y-109243921D01*
X85024117Y-109229671D01*
X85006393Y-109213607D01*
X84990329Y-109195883D01*
X84976079Y-109176670D01*
X84963782Y-109156153D01*
X84953554Y-109134529D01*
X84945496Y-109112007D01*
X84939684Y-109088803D01*
X84936174Y-109065142D01*
X84935000Y-109041250D01*
X84935000Y-108128750D01*
X84936174Y-108104858D01*
X84939684Y-108081197D01*
X84945496Y-108057993D01*
X84953554Y-108035471D01*
X84963782Y-108013847D01*
X84976079Y-107993330D01*
X84990329Y-107974117D01*
X85006393Y-107956393D01*
X85024117Y-107940329D01*
X85043330Y-107926079D01*
X85063847Y-107913782D01*
X85085471Y-107903554D01*
X85107993Y-107895496D01*
X85131197Y-107889684D01*
X85154858Y-107886174D01*
X85178750Y-107885000D01*
X85666250Y-107885000D01*
X85690142Y-107886174D01*
X85690142Y-107886174D01*
G37*
D12*
X85422500Y-108585000D03*
D11*
G36*
X87565142Y-107886174D02*
X87588803Y-107889684D01*
X87612007Y-107895496D01*
X87634529Y-107903554D01*
X87656153Y-107913782D01*
X87676670Y-107926079D01*
X87695883Y-107940329D01*
X87713607Y-107956393D01*
X87729671Y-107974117D01*
X87743921Y-107993330D01*
X87756218Y-108013847D01*
X87766446Y-108035471D01*
X87774504Y-108057993D01*
X87780316Y-108081197D01*
X87783826Y-108104858D01*
X87785000Y-108128750D01*
X87785000Y-109041250D01*
X87783826Y-109065142D01*
X87780316Y-109088803D01*
X87774504Y-109112007D01*
X87766446Y-109134529D01*
X87756218Y-109156153D01*
X87743921Y-109176670D01*
X87729671Y-109195883D01*
X87713607Y-109213607D01*
X87695883Y-109229671D01*
X87676670Y-109243921D01*
X87656153Y-109256218D01*
X87634529Y-109266446D01*
X87612007Y-109274504D01*
X87588803Y-109280316D01*
X87565142Y-109283826D01*
X87541250Y-109285000D01*
X87053750Y-109285000D01*
X87029858Y-109283826D01*
X87006197Y-109280316D01*
X86982993Y-109274504D01*
X86960471Y-109266446D01*
X86938847Y-109256218D01*
X86918330Y-109243921D01*
X86899117Y-109229671D01*
X86881393Y-109213607D01*
X86865329Y-109195883D01*
X86851079Y-109176670D01*
X86838782Y-109156153D01*
X86828554Y-109134529D01*
X86820496Y-109112007D01*
X86814684Y-109088803D01*
X86811174Y-109065142D01*
X86810000Y-109041250D01*
X86810000Y-108128750D01*
X86811174Y-108104858D01*
X86814684Y-108081197D01*
X86820496Y-108057993D01*
X86828554Y-108035471D01*
X86838782Y-108013847D01*
X86851079Y-107993330D01*
X86865329Y-107974117D01*
X86881393Y-107956393D01*
X86899117Y-107940329D01*
X86918330Y-107926079D01*
X86938847Y-107913782D01*
X86960471Y-107903554D01*
X86982993Y-107895496D01*
X87006197Y-107889684D01*
X87029858Y-107886174D01*
X87053750Y-107885000D01*
X87541250Y-107885000D01*
X87565142Y-107886174D01*
X87565142Y-107886174D01*
G37*
D12*
X87297500Y-108585000D03*
G04 #@! TD*
D11*
G04 #@! TO.C,R8*
G36*
X90105142Y-68516174D02*
X90128803Y-68519684D01*
X90152007Y-68525496D01*
X90174529Y-68533554D01*
X90196153Y-68543782D01*
X90216670Y-68556079D01*
X90235883Y-68570329D01*
X90253607Y-68586393D01*
X90269671Y-68604117D01*
X90283921Y-68623330D01*
X90296218Y-68643847D01*
X90306446Y-68665471D01*
X90314504Y-68687993D01*
X90320316Y-68711197D01*
X90323826Y-68734858D01*
X90325000Y-68758750D01*
X90325000Y-69671250D01*
X90323826Y-69695142D01*
X90320316Y-69718803D01*
X90314504Y-69742007D01*
X90306446Y-69764529D01*
X90296218Y-69786153D01*
X90283921Y-69806670D01*
X90269671Y-69825883D01*
X90253607Y-69843607D01*
X90235883Y-69859671D01*
X90216670Y-69873921D01*
X90196153Y-69886218D01*
X90174529Y-69896446D01*
X90152007Y-69904504D01*
X90128803Y-69910316D01*
X90105142Y-69913826D01*
X90081250Y-69915000D01*
X89593750Y-69915000D01*
X89569858Y-69913826D01*
X89546197Y-69910316D01*
X89522993Y-69904504D01*
X89500471Y-69896446D01*
X89478847Y-69886218D01*
X89458330Y-69873921D01*
X89439117Y-69859671D01*
X89421393Y-69843607D01*
X89405329Y-69825883D01*
X89391079Y-69806670D01*
X89378782Y-69786153D01*
X89368554Y-69764529D01*
X89360496Y-69742007D01*
X89354684Y-69718803D01*
X89351174Y-69695142D01*
X89350000Y-69671250D01*
X89350000Y-68758750D01*
X89351174Y-68734858D01*
X89354684Y-68711197D01*
X89360496Y-68687993D01*
X89368554Y-68665471D01*
X89378782Y-68643847D01*
X89391079Y-68623330D01*
X89405329Y-68604117D01*
X89421393Y-68586393D01*
X89439117Y-68570329D01*
X89458330Y-68556079D01*
X89478847Y-68543782D01*
X89500471Y-68533554D01*
X89522993Y-68525496D01*
X89546197Y-68519684D01*
X89569858Y-68516174D01*
X89593750Y-68515000D01*
X90081250Y-68515000D01*
X90105142Y-68516174D01*
X90105142Y-68516174D01*
G37*
D12*
X89837500Y-69215000D03*
D11*
G36*
X88230142Y-68516174D02*
X88253803Y-68519684D01*
X88277007Y-68525496D01*
X88299529Y-68533554D01*
X88321153Y-68543782D01*
X88341670Y-68556079D01*
X88360883Y-68570329D01*
X88378607Y-68586393D01*
X88394671Y-68604117D01*
X88408921Y-68623330D01*
X88421218Y-68643847D01*
X88431446Y-68665471D01*
X88439504Y-68687993D01*
X88445316Y-68711197D01*
X88448826Y-68734858D01*
X88450000Y-68758750D01*
X88450000Y-69671250D01*
X88448826Y-69695142D01*
X88445316Y-69718803D01*
X88439504Y-69742007D01*
X88431446Y-69764529D01*
X88421218Y-69786153D01*
X88408921Y-69806670D01*
X88394671Y-69825883D01*
X88378607Y-69843607D01*
X88360883Y-69859671D01*
X88341670Y-69873921D01*
X88321153Y-69886218D01*
X88299529Y-69896446D01*
X88277007Y-69904504D01*
X88253803Y-69910316D01*
X88230142Y-69913826D01*
X88206250Y-69915000D01*
X87718750Y-69915000D01*
X87694858Y-69913826D01*
X87671197Y-69910316D01*
X87647993Y-69904504D01*
X87625471Y-69896446D01*
X87603847Y-69886218D01*
X87583330Y-69873921D01*
X87564117Y-69859671D01*
X87546393Y-69843607D01*
X87530329Y-69825883D01*
X87516079Y-69806670D01*
X87503782Y-69786153D01*
X87493554Y-69764529D01*
X87485496Y-69742007D01*
X87479684Y-69718803D01*
X87476174Y-69695142D01*
X87475000Y-69671250D01*
X87475000Y-68758750D01*
X87476174Y-68734858D01*
X87479684Y-68711197D01*
X87485496Y-68687993D01*
X87493554Y-68665471D01*
X87503782Y-68643847D01*
X87516079Y-68623330D01*
X87530329Y-68604117D01*
X87546393Y-68586393D01*
X87564117Y-68570329D01*
X87583330Y-68556079D01*
X87603847Y-68543782D01*
X87625471Y-68533554D01*
X87647993Y-68525496D01*
X87671197Y-68519684D01*
X87694858Y-68516174D01*
X87718750Y-68515000D01*
X88206250Y-68515000D01*
X88230142Y-68516174D01*
X88230142Y-68516174D01*
G37*
D12*
X87962500Y-69215000D03*
G04 #@! TD*
D11*
G04 #@! TO.C,C1*
G36*
X101233504Y-72906204D02*
X101257773Y-72909804D01*
X101281571Y-72915765D01*
X101304671Y-72924030D01*
X101326849Y-72934520D01*
X101347893Y-72947133D01*
X101367598Y-72961747D01*
X101385777Y-72978223D01*
X101402253Y-72996402D01*
X101416867Y-73016107D01*
X101429480Y-73037151D01*
X101439970Y-73059329D01*
X101448235Y-73082429D01*
X101454196Y-73106227D01*
X101457796Y-73130496D01*
X101459000Y-73155000D01*
X101459000Y-73905000D01*
X101457796Y-73929504D01*
X101454196Y-73953773D01*
X101448235Y-73977571D01*
X101439970Y-74000671D01*
X101429480Y-74022849D01*
X101416867Y-74043893D01*
X101402253Y-74063598D01*
X101385777Y-74081777D01*
X101367598Y-74098253D01*
X101347893Y-74112867D01*
X101326849Y-74125480D01*
X101304671Y-74135970D01*
X101281571Y-74144235D01*
X101257773Y-74150196D01*
X101233504Y-74153796D01*
X101209000Y-74155000D01*
X99959000Y-74155000D01*
X99934496Y-74153796D01*
X99910227Y-74150196D01*
X99886429Y-74144235D01*
X99863329Y-74135970D01*
X99841151Y-74125480D01*
X99820107Y-74112867D01*
X99800402Y-74098253D01*
X99782223Y-74081777D01*
X99765747Y-74063598D01*
X99751133Y-74043893D01*
X99738520Y-74022849D01*
X99728030Y-74000671D01*
X99719765Y-73977571D01*
X99713804Y-73953773D01*
X99710204Y-73929504D01*
X99709000Y-73905000D01*
X99709000Y-73155000D01*
X99710204Y-73130496D01*
X99713804Y-73106227D01*
X99719765Y-73082429D01*
X99728030Y-73059329D01*
X99738520Y-73037151D01*
X99751133Y-73016107D01*
X99765747Y-72996402D01*
X99782223Y-72978223D01*
X99800402Y-72961747D01*
X99820107Y-72947133D01*
X99841151Y-72934520D01*
X99863329Y-72924030D01*
X99886429Y-72915765D01*
X99910227Y-72909804D01*
X99934496Y-72906204D01*
X99959000Y-72905000D01*
X101209000Y-72905000D01*
X101233504Y-72906204D01*
X101233504Y-72906204D01*
G37*
D13*
X100584000Y-73530000D03*
D11*
G36*
X101233504Y-75706204D02*
X101257773Y-75709804D01*
X101281571Y-75715765D01*
X101304671Y-75724030D01*
X101326849Y-75734520D01*
X101347893Y-75747133D01*
X101367598Y-75761747D01*
X101385777Y-75778223D01*
X101402253Y-75796402D01*
X101416867Y-75816107D01*
X101429480Y-75837151D01*
X101439970Y-75859329D01*
X101448235Y-75882429D01*
X101454196Y-75906227D01*
X101457796Y-75930496D01*
X101459000Y-75955000D01*
X101459000Y-76705000D01*
X101457796Y-76729504D01*
X101454196Y-76753773D01*
X101448235Y-76777571D01*
X101439970Y-76800671D01*
X101429480Y-76822849D01*
X101416867Y-76843893D01*
X101402253Y-76863598D01*
X101385777Y-76881777D01*
X101367598Y-76898253D01*
X101347893Y-76912867D01*
X101326849Y-76925480D01*
X101304671Y-76935970D01*
X101281571Y-76944235D01*
X101257773Y-76950196D01*
X101233504Y-76953796D01*
X101209000Y-76955000D01*
X99959000Y-76955000D01*
X99934496Y-76953796D01*
X99910227Y-76950196D01*
X99886429Y-76944235D01*
X99863329Y-76935970D01*
X99841151Y-76925480D01*
X99820107Y-76912867D01*
X99800402Y-76898253D01*
X99782223Y-76881777D01*
X99765747Y-76863598D01*
X99751133Y-76843893D01*
X99738520Y-76822849D01*
X99728030Y-76800671D01*
X99719765Y-76777571D01*
X99713804Y-76753773D01*
X99710204Y-76729504D01*
X99709000Y-76705000D01*
X99709000Y-75955000D01*
X99710204Y-75930496D01*
X99713804Y-75906227D01*
X99719765Y-75882429D01*
X99728030Y-75859329D01*
X99738520Y-75837151D01*
X99751133Y-75816107D01*
X99765747Y-75796402D01*
X99782223Y-75778223D01*
X99800402Y-75761747D01*
X99820107Y-75747133D01*
X99841151Y-75734520D01*
X99863329Y-75724030D01*
X99886429Y-75715765D01*
X99910227Y-75709804D01*
X99934496Y-75706204D01*
X99959000Y-75705000D01*
X101209000Y-75705000D01*
X101233504Y-75706204D01*
X101233504Y-75706204D01*
G37*
D13*
X100584000Y-76330000D03*
G04 #@! TD*
D14*
G04 #@! TO.C,Q1*
X93152000Y-99060000D03*
X92202000Y-99060000D03*
X91252000Y-99060000D03*
X91252000Y-101760000D03*
X93152000Y-101760000D03*
X92202000Y-101760000D03*
G04 #@! TD*
G04 #@! TO.C,Q2*
X96520000Y-98505000D03*
X97470000Y-98505000D03*
X95570000Y-98505000D03*
X95570000Y-95805000D03*
X96520000Y-95805000D03*
X97470000Y-95805000D03*
G04 #@! TD*
G04 #@! TO.C,Q3*
X102042000Y-91995000D03*
X101092000Y-91995000D03*
X100142000Y-91995000D03*
X100142000Y-94695000D03*
X102042000Y-94695000D03*
X101092000Y-94695000D03*
G04 #@! TD*
M02*
